<?xml version="1.0" encoding="UTF-8"?>
<svg width="146px" height="47px" viewBox="0 0 146 47" version="1.1" xmlns="http://www.w3.org/2000/svg" xmlns:xlink="http://www.w3.org/1999/xlink">
    <!-- Generator: sketchtool 61 (101010) - https://sketch.com -->
    <title>B7B2C774-5AC9-4533-B0BD-6ADC614EAD74</title>
    <desc>Created with sketchtool.</desc>
    <defs>
        <filter x="-9.9%" y="-35.5%" width="119.9%" height="171.1%" filterUnits="objectBoundingBox" id="filter-1">
            <feOffset dx="0" dy="2" in="SourceAlpha" result="shadowOffsetOuter1"></feOffset>
            <feGaussianBlur stdDeviation="2.5" in="shadowOffsetOuter1" result="shadowBlurOuter1"></feGaussianBlur>
            <feColorMatrix values="0 0 0 0 0   0 0 0 0 0   0 0 0 0 0  0 0 0 0.0949792395 0" type="matrix" in="shadowBlurOuter1" result="shadowMatrixOuter1"></feColorMatrix>
            <feMerge>
                <feMergeNode in="shadowMatrixOuter1"></feMergeNode>
                <feMergeNode in="SourceGraphic"></feMergeNode>
            </feMerge>
        </filter>
    </defs>
    <g id="Landing-Page" stroke="none" stroke-width="1" fill="none" fill-rule="evenodd">
        <g id="Landing" transform="translate(-887.000000, -54.000000)" fill="#9769F9" fill-rule="nonzero">
            <g id="Group">
                <g id="Sheltr-Colored" filter="url(#filter-1)" transform="translate(892.000000, 57.000000)">
                    <path d="M11.0968,37.1305435 C6.4792,37.1305435 2.8336,36.3144 0.16,34.6824 L0.16,28.1736 C1.63659036,29.1070348 3.24262957,29.8178649 4.9264,30.2832 C6.82690675,30.8513864 8.79997664,31.14001 10.7836,31.14 C13.7668,31.14 15.2596,30.4116 15.262,28.9548 C15.262,28.2588 14.8276,27.72 13.9588,27.3384 C13.5249357,27.1361646 13.0713239,26.9793307 12.6052,26.8704 L10.6792,26.4024 L9.5596,26.1144 C9.23316522,26.0368475 8.91110634,25.9419123 8.5948,25.83 C5.506,24.9948 3.328,23.9964 2.0608,22.8348 C0.7936,21.6732 0.16,19.9812 0.16,17.7588 C0.0949210514,15.4181324 1.24756059,13.2109503 3.2056,11.9268 C5.236,10.5012 8.0392,9.7884 11.6152,9.7884 C15.5752,9.7884 18.8212,10.5876 21.3532,12.186 L21.3532,18.4356 C18.2644,16.6284 15.1228,15.7248 11.9284,15.7248 C9.1528,15.7248 7.7632,16.4232 7.7632,17.8092 C7.76165718,18.079259 7.84336388,18.3432345 7.9972,18.5652 C8.12099991,18.7574082 8.27974275,18.9246988 8.4652,19.0584 C8.6236,19.1628 8.872,19.3212 9.2212,19.5264 C9.43,19.5984 9.8116,19.71 10.366,19.8648 C10.9204,20.0196 11.2876,20.1348 11.446,20.2248 L14.2072,20.7972 C17.0872,21.4548 19.222,22.4352 20.6116,23.7384 C22.0012,25.0416 22.6948,26.8032 22.6924062,29.0232 C22.6924062,31.4544 21.634,33.4164 19.5172,34.9092 C17.4004,36.402 14.5936,37.1424 11.0968,37.1305435 Z" id="Path"></path>
                    <path d="M68.8984,37.1304 C64.8376,37.1304 61.4176,35.88 58.6384,33.3792 C55.8592,30.8784 54.4708,27.5628 54.4731969,23.4324 C54.4731969,19.5804 55.7236,16.3524 58.2244,13.7484 C60.7252,11.1444 63.988,9.8244 68.0128,9.7884 C71.764,9.7884 74.764,11.1252 77.0128,13.7988 C79.2616,16.4724 80.3896,19.7184 80.3968,23.5368 L80.3968,25.4628 L61.7632,25.4628 C62.1068316,27.1493708 63.1548276,28.6087052 64.6432,29.4732 C66.1864,30.4116 68.122,30.8808 70.45,30.8808 C73.3808037,30.867037 76.2554534,30.0757009 78.7804,28.5876 L78.7804,34.4736 C76.462,36.2448 73.168,37.1304 68.8984,37.1304 Z M61.7632,20.7792 L73.168,20.7792 C73.1396251,19.3788263 72.5707419,18.0436921 71.5804,17.0532 C70.5451493,16.0471911 69.141926,15.5108943 67.6996,15.57 C66.2128204,15.5206029 64.7623073,16.0349693 63.6388,17.01 C62.5545239,17.980262 61.8832997,19.3291521 61.7632,20.7792 L61.7632,20.7792 Z" id="Shape"></path>
                    <path d="M90.88,37.1304 C88.72,37.1304 87.028,36.5484 85.804,35.3844 C84.58,34.2204 83.9632,32.4072 83.9536,29.9448 L83.9536,0 L91.2976,0 L91.2976,28.0152 C91.2976,29.7552 92.0788,30.624 93.6412,30.6216 C94.2977124,30.6384203 94.9463189,30.4753349 95.5168,30.15 L95.5168,36.1908 C94.0651694,36.8599246 92.4776028,37.1816288 90.88,37.1304 L90.88,37.1304 Z" id="Path"></path>
                    <path d="M100.0384,28.3824 L100.0384,16.6104 L94.9372,16.6104 L94.9372,10.4688 L100.0384,10.4688 L100.0384,3.3336 L107.3824,3.3336 L107.3824,10.4688 L114.7768,10.4688 L114.7768,16.6104 L107.3824,16.6104 L107.3824,26.9244 C107.3824,28.206 107.6596,29.1336 108.214,29.7072 C108.7684,30.2832 109.672,30.5676 110.9212,30.5676 C112.244239,30.5578143 113.546456,30.2371927 114.7228,29.6316 L114.7228,35.7228 C113.1964,36.6636 111.1312,37.1328 108.5272,37.1304092 C102.868,37.1304092 100.0384,34.2144 100.0384,28.3824 Z" id="Path"></path>
                    <path d="M125.8,36.4536 L118.474,36.4536 L118.474,10.4688 L125.8,10.4688 L125.8,14.8428 C126.688212,13.3660291 127.94486,12.1453556 129.4468,11.3004 C131.075225,10.3133639 132.942593,9.79050087 134.8468,9.7884 C135.126314,9.77779014 135.406179,9.79588488 135.682,9.8424 L135.682,17.0424 C134.930992,16.8630273 134.160898,16.7759838 133.3888,16.7832 C131.740492,16.7682798 130.122925,17.2295489 128.7304,18.1116 C127.4571,18.8568164 126.436383,19.966564 125.8,21.2976 L125.8,36.4536 Z" id="Path"></path>
                    <polygon id="Path" points="33.4348 7.596 33.4348 0.0504 26.08 4.1292 26.08 11.6892"></polygon>
                    <path d="M37.618,10.6308 L27.556,15.804 C26.6526837,16.2624894 26.0825608,17.1885914 26.08,18.2016 L26.08,36.4536 L33.4348,36.4536 L33.4348,19.8936 L43.7848,19.8936 L43.7848,36.4536 L51.6040002,36.4536 L51.6040002,18.2016 C51.6043379,17.1907369 51.0385087,16.2648346 50.1388,15.804 L40.084,10.6308 C39.3097215,10.2346835 38.3922785,10.2346835 37.618,10.6308 Z" id="Path"></path>
                </g>
            </g>
        </g>
    </g>
</svg>